<svg xmlns="http://www.w3.org/2000/svg" viewBox="0 0 93.6 93.6">
<circle cx="46.8" cy="46.8" r="46.8" fill="#0F4C88"/>
<g transform="translate(6,6)">
<path fill="#FFFFFF" d="M32.4,20.1c2.9-0.3,5.2-2.8,5.2-5.7c0-3.2-2.6-5.7-5.7-5.7
	c-3.2,0-5.7,2.6-5.7,5.7c0,1,0.3,1.9,0.7,2.8l2,28.7l21,0l8.6,20.2l11.3-4.4l-1.8-4.2l-6.3,2.3l-8.3-19.2l-19.5,0.1L33.6,37l14.1,0
	v-5.4l-14.7,0C33.1,31.6,32.4,20.1,32.4,20.1z"/>
<path fill="#FFFFFF" d="M53.6,61.3c-3.5,7-11,11.6-18.9,11.6
	c-11.6,0-21.1-9.5-21.1-21.1c0-8.2,4.9-15.7,12.3-19.1l0.5,6.2c-4.4,2.7-7.1,7.7-7.1,12.9c0,8.4,6.9,15.3,15.3,15.3
	c7.7,0,14.3-5.9,15.2-13.5L53.6,61.3z"/>
</g>
</svg>
